@startuml

skinparam component {
    FontColor          black
    AttributeFontColor black
    FontSize           17
    AttributeFontSize  15
    AttributeFontname  Droid Sans Mono
    BackgroundColor    #6A9EFF
    BorderColor        black
    ArrowColor         #222266
}

title OSCIED & Store Charms Relations Showing OSS Components
skinparam componentStyle uml2

interface api
interface website
interface storage
interface publisher
interface transform

node WebUI {
    
    interface css_framework
    interface mvc_framework
    interface web_daemon
    interface sql

    website - [codeW]
    css_framework - [Bootstrap]
    mvc_framework -up- [CodeIgniter]
    web_daemon - [Apache 2]
    sql - [MySQL]

    [codeW] ..> api
    [codeW] ..> storage
    [codeW] .up.> mvc_framework
    [codeW] .up.> css_framework
    [CodeIgniter] .up.> web_daemon
    [CodeIgniter] .right.> sql

    [hooksW]
}

node Orchestra {

    interface framework
    interface task_queue
    interface broker
    interface database

    api - [codeO]
    transform - [codeO]
    publisher - [codeO]
    framework - [Flask]
    task_queue - [Celery]
    broker - [RabbitMQ]
    database - [MongoDB]

    [codeO] ..> storage
    [codeO] ..> task_queue
    [codeO] ..> database
    [codeO] .right.> framework
    [Celery] ..> broker
    [Celery] ..> database

    [hooksO]
}

node Storage {
    
    storage - [GlusterFS]

    [hooksS]
}

node Transform {
    
    interface task_daemon_t
    interface encoder

    task_daemon_t - [celeryd]
    encoder - [FFmpeg]

    [codeT] .left.> transform
    [codeT] .down.> task_daemon_t
    [codeT] .right.> encoder
    [codeT] .down.> storage

    [hooksT]
}

node Publisher {
    
    interface task_daemon_p
    interface web_daemon_p

    task_daemon_p - [celeryd ]
    web_daemon_p - [Apache 2 ]

    [codeP] ..> publisher
    [codeP] .down.> task_daemon_p
    [codeP] .right.> web_daemon_p
    [codeP] .down.> storage

    [hooksP]
}

@enduml